# Blender 4.4.3
# www.blender.org
mtllib Line3D.mtl
o Cube.001
v 0.093750 -0.093750 -0.000068
v 0.093750 0.093750 -0.000068
v 0.093750 -0.093750 0.999932
v 0.093750 0.093750 0.999932
v -0.093750 -0.093750 -0.000068
v -0.093750 0.093750 -0.000068
v -0.093750 -0.093750 0.999932
v -0.093750 0.093750 0.999932
v 0.093750 -0.093750 0.666599
v 0.093750 -0.093750 0.333266
v 0.093750 0.093750 0.333266
v 0.093750 0.093750 0.666599
v -0.093750 -0.093750 0.333266
v -0.093750 -0.093750 0.666599
v -0.093750 0.093750 0.666599
v -0.093750 0.093750 0.333266
v 0.093750 -0.093750 0.222155
v 0.093750 -0.093750 0.111043
v -0.093750 0.093750 0.222155
v -0.093750 0.093750 0.111043
v 0.093750 0.093750 0.111043
v 0.093750 0.093750 0.222155
v -0.093750 -0.093750 0.111043
v -0.093750 -0.093750 0.222155
v 0.093750 0.093750 0.777710
v 0.093750 0.093750 0.888821
v -0.093750 -0.093750 0.777710
v -0.093750 -0.093750 0.888821
v 0.093750 -0.093750 0.888821
v 0.093750 -0.093750 0.777710
v -0.093750 0.093750 0.888821
v -0.093750 0.093750 0.777710
v 0.093750 -0.093750 0.555488
v 0.093750 -0.093750 0.444377
v 0.093750 0.093750 0.444377
v 0.093750 0.093750 0.555488
v -0.093750 -0.093750 0.444377
v -0.093750 -0.093750 0.555488
v -0.093750 0.093750 0.555488
v -0.093750 0.093750 0.444377
v 0.093750 0.093750 0.814747
v 0.093750 0.093750 0.851784
v -0.093750 -0.093750 0.814747
v -0.093750 -0.093750 0.851784
v 0.093750 -0.093750 0.851784
v 0.093750 -0.093750 0.814747
v -0.093750 0.093750 0.851784
v -0.093750 0.093750 0.814747
v 0.093750 -0.093750 0.740673
v 0.093750 -0.093750 0.703636
v -0.093750 0.093750 0.740673
v -0.093750 0.093750 0.703636
v 0.093750 0.093750 0.703636
v 0.093750 0.093750 0.740673
v -0.093750 -0.093750 0.703636
v -0.093750 -0.093750 0.740673
v 0.093750 0.093750 0.592525
v 0.093750 0.093750 0.629562
v -0.093750 -0.093750 0.592525
v -0.093750 -0.093750 0.629562
v 0.093750 -0.093750 0.629562
v 0.093750 -0.093750 0.592525
v -0.093750 0.093750 0.629562
v -0.093750 0.093750 0.592525
v 0.093750 -0.093750 0.518451
v 0.093750 -0.093750 0.481414
v 0.093750 0.093750 0.481414
v 0.093750 0.093750 0.518451
v -0.093750 -0.093750 0.481414
v -0.093750 -0.093750 0.518451
v -0.093750 0.093750 0.518451
v -0.093750 0.093750 0.481414
v 0.093750 -0.093750 0.407340
v 0.093750 -0.093750 0.370303
v -0.093750 0.093750 0.407340
v -0.093750 0.093750 0.370303
v 0.093750 0.093750 0.370303
v 0.093750 0.093750 0.407340
v -0.093750 -0.093750 0.370303
v -0.093750 -0.093750 0.407340
v 0.093750 0.093750 0.258246
v 0.093750 0.093750 0.295283
v -0.093750 -0.093750 0.258246
v -0.093750 -0.093750 0.295283
v 0.093750 -0.093750 0.295283
v 0.093750 -0.093750 0.258246
v -0.093750 0.093750 0.295283
v -0.093750 0.093750 0.258246
v 0.093750 -0.093750 0.185117
v 0.093750 -0.093750 0.148080
v -0.093750 0.093750 0.185117
v -0.093750 0.093750 0.148080
v 0.093750 0.093750 0.148080
v 0.093750 0.093750 0.185118
v -0.093750 -0.093750 0.148080
v -0.093750 -0.093750 0.185118
v 0.093750 -0.093750 0.074006
v 0.093750 -0.093750 0.036969
v -0.093750 0.093750 0.074006
v -0.093750 0.093750 0.036969
v 0.093750 0.093750 0.036969
v 0.093750 0.093750 0.074006
v -0.093750 -0.093750 0.036969
v -0.093750 -0.093750 0.074006
v 0.093750 0.093750 0.925858
v 0.093750 0.093750 0.962895
v -0.093750 -0.093750 0.925858
v -0.093750 -0.093750 0.962895
v 0.093750 -0.093750 0.962895
v 0.093750 -0.093750 0.925858
v -0.093750 0.093750 0.962895
v -0.093750 0.093750 0.925858
vn 1.0000 -0.0000 -0.0000
vn -0.0000 -0.0000 1.0000
vn -1.0000 -0.0000 -0.0000
vn -0.0000 -0.0000 -1.0000
vn -0.0000 -1.0000 -0.0000
vn -0.0000 1.0000 -0.0000
vt 0.375000 0.240741
vt 0.625000 0.240741
vt 0.625000 0.250000
vt 0.375000 0.250000
vt 0.625000 0.500000
vt 0.375000 0.500000
vt 0.375000 0.740741
vt 0.625000 0.740741
vt 0.625000 0.750000
vt 0.375000 0.750000
vt 0.625000 1.000000
vt 0.375000 1.000000
vt 0.125000 0.740741
vt 0.125000 0.750000
vt 0.875000 0.740741
vt 0.875000 0.750000
vt 0.625000 0.574074
vt 0.875000 0.574074
vt 0.875000 0.583333
vt 0.625000 0.583333
vt 0.625000 0.657407
vt 0.875000 0.657407
vt 0.875000 0.666667
vt 0.625000 0.666667
vt 0.125000 0.574074
vt 0.375000 0.574074
vt 0.375000 0.583333
vt 0.125000 0.583333
vt 0.125000 0.657407
vt 0.375000 0.657407
vt 0.375000 0.666667
vt 0.125000 0.666667
vt 0.375000 0.073838
vt 0.625000 0.073838
vt 0.625000 0.083333
vt 0.375000 0.083333
vt 0.375000 0.157407
vt 0.625000 0.157407
vt 0.625000 0.166667
vt 0.375000 0.166667
vt 0.375000 0.018519
vt 0.625000 0.018519
vt 0.625000 0.027778
vt 0.375000 0.027778
vt 0.375000 0.046296
vt 0.625000 0.046296
vt 0.625000 0.055556
vt 0.375000 0.055556
vt 0.625000 0.685422
vt 0.875000 0.685422
vt 0.875000 0.694444
vt 0.625000 0.694444
vt 0.625000 0.712963
vt 0.875000 0.712963
vt 0.875000 0.722222
vt 0.625000 0.722222
vt 0.125000 0.685422
vt 0.375000 0.685422
vt 0.375000 0.694444
vt 0.125000 0.694444
vt 0.125000 0.712963
vt 0.375000 0.712963
vt 0.375000 0.722222
vt 0.125000 0.722222
vt 0.375000 0.518518
vt 0.625000 0.518518
vt 0.625000 0.527778
vt 0.375000 0.527778
vt 0.375000 0.546296
vt 0.625000 0.546296
vt 0.625000 0.555556
vt 0.375000 0.555556
vt 0.125000 0.518518
vt 0.125000 0.527778
vt 0.125000 0.546296
vt 0.125000 0.555556
vt 0.875000 0.518518
vt 0.875000 0.527778
vt 0.875000 0.546296
vt 0.875000 0.555556
vt 0.375000 0.185185
vt 0.625000 0.185185
vt 0.625000 0.194444
vt 0.375000 0.194444
vt 0.375000 0.212963
vt 0.625000 0.212963
vt 0.625000 0.222222
vt 0.375000 0.222222
vt 0.375000 0.101852
vt 0.625000 0.101852
vt 0.625000 0.111111
vt 0.375000 0.111111
vt 0.375000 0.129630
vt 0.625000 0.129630
vt 0.625000 0.138889
vt 0.375000 0.138889
vt 0.375000 0.601852
vt 0.625000 0.601852
vt 0.625000 0.611111
vt 0.375000 0.611111
vt 0.375000 0.629630
vt 0.625000 0.629630
vt 0.625000 0.638889
vt 0.375000 0.638889
vt 0.125000 0.601852
vt 0.125000 0.611111
vt 0.125000 0.629630
vt 0.125000 0.638889
vt 0.875000 0.601852
vt 0.875000 0.611111
vt 0.875000 0.629630
vt 0.875000 0.638889
vt 0.625000 0.203704
vt 0.375000 0.203704
vt 0.875000 0.537037
vt 0.625000 0.537037
vt 0.375000 0.537037
vt 0.125000 0.537037
vt 0.625000 0.175926
vt 0.375000 0.175926
vt 0.625000 0.564815
vt 0.375000 0.564815
vt 0.125000 0.564815
vt 0.875000 0.564815
vt 0.875000 0.592593
vt 0.625000 0.592592
vt 0.375000 0.592593
vt 0.125000 0.592592
vt 0.625000 0.148148
vt 0.375000 0.148148
vt 0.875000 0.620370
vt 0.625000 0.620370
vt 0.375000 0.620370
vt 0.125000 0.620370
vt 0.625000 0.120370
vt 0.375000 0.120370
vt 0.625000 0.092593
vt 0.375000 0.092593
vt 0.625000 0.648148
vt 0.375000 0.648148
vt 0.125000 0.648148
vt 0.875000 0.648148
vt 0.625000 0.676162
vt 0.375000 0.676162
vt 0.125000 0.676162
vt 0.875000 0.676162
vt 0.625000 0.064578
vt 0.375000 0.064578
vt 0.625000 0.703704
vt 0.375000 0.703704
vt 0.125000 0.703704
vt 0.875000 0.703704
vt 0.625000 0.037037
vt 0.375000 0.037037
vt 0.375000 0.000000
vt 0.625000 0.000000
vt 0.625000 0.009259
vt 0.375000 0.009259
vt 0.875000 0.731481
vt 0.625000 0.731481
vt 0.375000 0.731481
vt 0.125000 0.731481
vt 0.875000 0.500000
vt 0.875000 0.509259
vt 0.625000 0.509259
vt 0.125000 0.500000
vt 0.375000 0.509259
vt 0.125000 0.509259
vt 0.625000 0.231481
vt 0.375000 0.231481
s 0
f 109/1/1 106/2/1 4/3/1 3/4/1
f 3/4/2 4/3/2 8/5/2 7/6/2
f 103/7/3 100/8/3 6/9/3 5/10/3
f 5/10/4 6/9/4 2/11/4 1/12/4
f 98/13/5 103/7/5 5/10/5 1/14/5
f 100/8/6 101/15/6 2/16/6 6/9/6
f 52/17/6 53/18/6 12/19/6 15/20/6
f 76/21/6 77/22/6 11/23/6 16/24/6
f 50/25/5 55/26/5 14/27/5 9/28/5
f 74/29/5 79/30/5 13/31/5 10/32/5
f 55/26/3 52/17/3 15/20/3 14/27/3
f 79/30/3 76/21/3 16/24/3 13/31/3
f 85/33/1 82/34/1 11/35/1 10/36/1
f 61/37/1 58/38/1 12/39/1 9/40/1
f 97/41/1 102/42/1 21/43/1 18/44/1
f 89/45/1 94/46/1 22/47/1 17/48/1
f 88/49/6 81/50/6 22/51/6 19/52/6
f 92/53/6 93/54/6 21/55/6 20/56/6
f 86/57/5 83/58/5 24/59/5 17/60/5
f 90/61/5 95/62/5 23/63/5 18/64/5
f 83/58/3 88/49/3 19/52/3 24/59/3
f 95/62/3 92/53/3 20/56/3 23/63/3
f 107/65/3 112/66/3 31/67/3 28/68/3
f 43/69/3 48/70/3 32/71/3 27/72/3
f 110/73/5 107/65/5 28/68/5 29/74/5
f 46/75/5 43/69/5 27/72/5 30/76/5
f 112/66/6 105/77/6 26/78/6 31/67/6
f 48/70/6 41/79/6 25/80/6 32/71/6
f 49/81/1 54/82/1 25/83/1 30/84/1
f 45/85/1 42/86/1 26/87/1 29/88/1
f 73/89/1 78/90/1 35/91/1 34/92/1
f 65/93/1 68/94/1 36/95/1 33/96/1
f 59/97/3 64/98/3 39/99/3 38/100/3
f 69/101/3 72/102/3 40/103/3 37/104/3
f 62/105/5 59/97/5 38/100/5 33/106/5
f 66/107/5 69/101/5 37/104/5 34/108/5
f 64/98/6 57/109/6 36/110/6 39/99/6
f 72/102/6 67/111/6 35/112/6 40/103/6
f 30/84/1 25/83/1 41/113/1 46/114/1
f 46/114/1 41/113/1 42/86/1 45/85/1
f 31/67/6 26/78/6 42/115/6 47/116/6
f 47/116/6 42/115/6 41/79/6 48/70/6
f 29/74/5 28/68/5 44/117/5 45/118/5
f 45/118/5 44/117/5 43/69/5 46/75/5
f 28/68/3 31/67/3 47/116/3 44/117/3
f 44/117/3 47/116/3 48/70/3 43/69/3
f 9/40/1 12/39/1 53/119/1 50/120/1
f 50/120/1 53/119/1 54/82/1 49/81/1
f 27/72/3 32/71/3 51/121/3 56/122/3
f 56/122/3 51/121/3 52/17/3 55/26/3
f 30/76/5 27/72/5 56/122/5 49/123/5
f 49/123/5 56/122/5 55/26/5 50/25/5
f 32/71/6 25/80/6 54/124/6 51/121/6
f 51/121/6 54/124/6 53/18/6 52/17/6
f 15/20/6 12/19/6 58/125/6 63/126/6
f 63/126/6 58/125/6 57/109/6 64/98/6
f 9/28/5 14/27/5 60/127/5 61/128/5
f 61/128/5 60/127/5 59/97/5 62/105/5
f 14/27/3 15/20/3 63/126/3 60/127/3
f 60/127/3 63/126/3 64/98/3 59/97/3
f 33/96/1 36/95/1 57/129/1 62/130/1
f 62/130/1 57/129/1 58/38/1 61/37/1
f 39/99/6 36/110/6 68/131/6 71/132/6
f 71/132/6 68/131/6 67/111/6 72/102/6
f 33/106/5 38/100/5 70/133/5 65/134/5
f 65/134/5 70/133/5 69/101/5 66/107/5
f 38/100/3 39/99/3 71/132/3 70/133/3
f 70/133/3 71/132/3 72/102/3 69/101/3
f 34/92/1 35/91/1 67/135/1 66/136/1
f 66/136/1 67/135/1 68/94/1 65/93/1
f 10/36/1 11/35/1 77/137/1 74/138/1
f 74/138/1 77/137/1 78/90/1 73/89/1
f 37/104/3 40/103/3 75/139/3 80/140/3
f 80/140/3 75/139/3 76/21/3 79/30/3
f 34/108/5 37/104/5 80/140/5 73/141/5
f 73/141/5 80/140/5 79/30/5 74/29/5
f 40/103/6 35/112/6 78/142/6 75/139/6
f 75/139/6 78/142/6 77/22/6 76/21/6
f 13/31/3 16/24/3 87/143/3 84/144/3
f 84/144/3 87/143/3 88/49/3 83/58/3
f 10/32/5 13/31/5 84/144/5 85/145/5
f 85/145/5 84/144/5 83/58/5 86/57/5
f 16/24/6 11/23/6 82/146/6 87/143/6
f 87/143/6 82/146/6 81/50/6 88/49/6
f 17/48/1 22/47/1 81/147/1 86/148/1
f 86/148/1 81/147/1 82/34/1 85/33/1
f 24/59/3 19/52/3 91/149/3 96/150/3
f 96/150/3 91/149/3 92/53/3 95/62/3
f 17/60/5 24/59/5 96/150/5 89/151/5
f 89/151/5 96/150/5 95/62/5 90/61/5
f 19/52/6 22/51/6 94/152/6 91/149/6
f 91/149/6 94/152/6 93/54/6 92/53/6
f 18/44/1 21/43/1 93/153/1 90/154/1
f 90/154/1 93/153/1 94/46/1 89/45/1
f 1/155/1 2/156/1 101/157/1 98/158/1
f 98/158/1 101/157/1 102/42/1 97/41/1
f 20/56/6 21/55/6 102/159/6 99/160/6
f 99/160/6 102/159/6 101/15/6 100/8/6
f 18/64/5 23/63/5 104/161/5 97/162/5
f 97/162/5 104/161/5 103/7/5 98/13/5
f 23/63/3 20/56/3 99/160/3 104/161/3
f 104/161/3 99/160/3 100/8/3 103/7/3
f 8/5/6 4/163/6 106/164/6 111/165/6
f 111/165/6 106/164/6 105/77/6 112/66/6
f 3/166/5 7/6/5 108/167/5 109/168/5
f 109/168/5 108/167/5 107/65/5 110/73/5
f 7/6/3 8/5/3 111/165/3 108/167/3
f 108/167/3 111/165/3 112/66/3 107/65/3
f 29/88/1 26/87/1 105/169/1 110/170/1
f 110/170/1 105/169/1 106/2/1 109/1/1
