# Blender 4.4.3
# www.blender.org
mtllib File.mtl
o Plane
v -0.000000 1.000000 0.900000
v -0.000000 0.950000 0.986603
v -0.000000 0.986603 0.950000
v 0.000000 -0.900000 1.000000
v 0.000000 -0.986603 0.950000
v 0.000000 -0.950000 0.986603
v 0.062569 0.100000 0.000000
v 0.062569 0.005907 -0.061815
v 0.062569 0.050000 -0.013397
v 0.000000 -0.900000 -1.000000
v 0.000000 -0.950000 -0.986603
v 0.000000 -0.986603 -0.950000
v 0.001846 1.000352 -0.000024
v -0.000000 0.900000 1.000000
v 0.000000 -1.000000 0.900000
v 0.000000 -1.000000 -0.900000
v 0.002433 -0.000196 -1.000405
v 0.059314 -0.000063 -0.999782
v 0.058818 0.999611 0.000059
vn -0.0102 -0.7070 0.7071
vn 1.0000 -0.0001 0.0018
vn 1.0000 -0.0000 -0.0000
vn -1.0000 -0.0040 0.0036
vn -0.0061 -0.7072 0.7070
vn 1.0000 -0.0005 0.0010
vn 1.0000 -0.0024 -0.0001
vn 1.0000 0.0019 0.0019
vt 0.687796 0.546361
vt 0.669411 0.335079
vt 0.685736 0.335276
vt 0.016759 0.347538
vt 0.034282 0.001094
vt 0.664843 0.034282
vt 0.631655 0.001094
vt 0.648249 0.005541
vt 0.660397 0.017688
vt 0.667054 0.332936
vt 0.670331 0.021968
vt 0.683625 0.005541
vt 0.700219 0.001094
vt 0.985516 0.007903
vt 0.669103 0.804458
vt 0.364144 0.669471
vt 0.664843 0.631655
vt 0.660396 0.648249
vt 0.648249 0.660397
vt 0.631655 0.664843
vt 0.685724 0.804537
vt 0.001094 0.034282
vt 0.005541 0.017688
vt 0.017688 0.005541
s 0
usemtl Material
f 17/1/1 19/2/1 13/3/1
f 13/4/2 14/5/2 15/6/2
f 4/7/3 6/8/3 5/9/3 15/6/3 14/5/3
f 18/10/4 8/11/4 9/12/4 7/13/4 19/14/4
f 18/15/5 19/2/5 17/1/5
f 13/4/6 15/6/6 17/16/6
f 16/17/7 12/18/7 11/19/7 10/20/7 17/21/7 15/6/7
f 14/5/8 13/4/8 1/22/8 3/23/8 2/24/8
