# Blender 4.4.3
# www.blender.org
mtllib FileSelector.mtl
o Plane
v 0.000000 1.000000 1.000000
v -0.000000 0.700000 1.000000
v 0.000000 1.000000 0.700000
v 0.000000 0.900000 0.900000
v -0.000000 0.700000 0.900000
v 0.000000 0.900000 0.700000
vn 1.0000 -0.0000 -0.0000
vt 0.000000 0.000000
s 0
f 1/1/1 2/1/1 5/1/1 4/1/1
f 3/1/1 1/1/1 4/1/1 6/1/1
o Plane.001
v 0.000000 -1.000000 1.000000
v -0.000000 -1.000000 0.700000
v -0.000000 -0.700000 1.000000
v 0.000000 -0.900000 0.900000
v -0.000000 -0.900000 0.700000
v -0.000000 -0.700000 0.900000
vn 1.0000 -0.0000 -0.0000
vt 0.000000 0.000000
s 0
f 7/2/2 8/2/2 11/2/2 10/2/2
f 9/2/2 7/2/2 10/2/2 12/2/2
o Plane.002
v 0.000000 1.000000 -1.000000
v -0.000000 1.000000 -0.700000
v 0.000000 0.700000 -1.000000
v 0.000000 0.900000 -0.900000
v -0.000000 0.900000 -0.700000
v 0.000000 0.700000 -0.900000
vn 1.0000 -0.0000 -0.0000
vt 0.000000 0.000000
s 0
f 13/3/3 14/3/3 17/3/3 16/3/3
f 15/3/3 13/3/3 16/3/3 18/3/3
o Plane.003
v -0.000000 -1.000000 -1.000000
v 0.000000 -0.700000 -1.000000
v -0.000000 -1.000000 -0.700000
v 0.000000 -0.900000 -0.900000
v 0.000000 -0.700000 -0.900000
v -0.000000 -0.900000 -0.700000
vn 1.0000 -0.0000 -0.0000
vt 0.000000 0.000000
s 0
f 19/4/4 20/4/4 23/4/4 22/4/4
f 21/4/4 19/4/4 22/4/4 24/4/4
