# Blender 4.4.3
# www.blender.org
mtllib Folder.mtl
o Plane.001
v -0.000000 0.699553 0.997946
v 0.000000 -0.994336 0.994336
v -0.000000 0.694336 -0.994336
v 0.000000 -0.994336 -0.994336
v -0.000000 0.704830 0.296897
v -0.000000 0.995170 0.859837
v -0.000000 0.995170 0.440163
v 0.194386 0.700261 0.975006
v 0.193144 0.689391 0.996595
v 0.000197 -0.999993 0.975006
v 0.001438 -0.989123 0.996595
v 0.193743 0.694634 -0.994330
v 0.000197 -0.999993 -0.974994
v 0.001438 -0.989123 -0.996582
v 0.194207 0.704933 -0.402750
v 0.193357 0.705007 0.302738
v 0.211548 0.994870 -0.236220
v 0.211547 0.994870 0.136233
vn 0.9936 -0.1130 -0.0000
vn 1.0000 -0.0000 -0.0000
vn 0.9981 -0.0612 0.0008
vt 0.006892 0.002184
vt 0.993108 0.002670
vt 1.000000 0.012500
vt 1.000000 0.987500
vt 0.993108 0.997187
vt 0.005640 0.992929
vt 0.000000 0.515981
vt -0.001973 0.246685
vt 0.000000 0.008929
vt 0.994696 0.004874
vt 0.994322 0.995533
vt 0.005678 0.996380
vt 0.000000 0.505690
vt 0.004122 0.000983
vt 0.000000 0.255890
vt 0.000000 0.493910
vt 0.000000 0.489060
vt 0.000000 0.010940
s 0
usemtl Material
f 9/1/1 11/2/1 10/3/1 13/4/1 14/5/1 12/6/1 15/7/1 16/8/1 8/9/1
f 2/10/2 4/11/2 3/12/2 5/13/2 1/14/2
f 18/15/3 16/8/3 15/7/3 17/16/3
f 7/17/2 6/18/2 1/14/2 5/13/2
