# Blender 4.4.3
# www.blender.org
mtllib NodeBody.mtl
o Plane.001
v -0.250000 -0.750000 0.800000
v -0.250000 -0.550000 1.000000
v -0.250000 -0.749605 0.812558
v -0.250000 -0.748423 0.825067
v -0.250000 -0.746457 0.837476
v -0.250000 -0.743717 0.849738
v -0.250000 -0.740211 0.861803
v -0.250000 -0.735955 0.873625
v -0.250000 -0.730965 0.885156
v -0.250000 -0.725261 0.896351
v -0.250000 -0.718866 0.907165
v -0.250000 -0.711803 0.917557
v -0.250000 -0.704103 0.927485
v -0.250000 -0.695794 0.936909
v -0.250000 -0.686909 0.945794
v -0.250000 -0.677485 0.954103
v -0.250000 -0.667557 0.961803
v -0.250000 -0.657165 0.968865
v -0.250000 -0.646351 0.975261
v -0.250000 -0.635156 0.980965
v -0.250000 -0.623625 0.985955
v -0.250000 -0.611803 0.990211
v -0.250000 -0.599738 0.993717
v -0.250000 -0.587476 0.996457
v -0.250000 -0.575067 0.998423
v -0.250000 -0.562558 0.999605
v -0.250000 -0.550000 -1.000000
v -0.250000 -0.750000 -0.800000
v -0.250000 -0.562558 -0.999605
v -0.250000 -0.575067 -0.998423
v -0.250000 -0.587476 -0.996457
v -0.250000 -0.599738 -0.993717
v -0.250000 -0.611803 -0.990211
v -0.250000 -0.623625 -0.985955
v -0.250000 -0.635156 -0.980965
v -0.250000 -0.646351 -0.975261
v -0.250000 -0.657165 -0.968865
v -0.250000 -0.667557 -0.961803
v -0.250000 -0.677485 -0.954103
v -0.250000 -0.686909 -0.945794
v -0.250000 -0.695794 -0.936909
v -0.250000 -0.704103 -0.927485
v -0.250000 -0.711803 -0.917557
v -0.250000 -0.718866 -0.907165
v -0.250000 -0.725261 -0.896351
v -0.250000 -0.730965 -0.885156
v -0.250000 -0.735955 -0.873625
v -0.250000 -0.740211 -0.861803
v -0.250000 -0.743717 -0.849738
v -0.250000 -0.746457 -0.837476
v -0.250000 -0.748423 -0.825067
v -0.250000 -0.749605 -0.812558
v 0.250000 -0.750000 0.800000
v 0.250000 -0.550000 1.000000
v 0.250000 -0.749605 0.812558
v 0.250000 -0.748423 0.825067
v 0.250000 -0.746457 0.837476
v 0.250000 -0.743717 0.849738
v 0.250000 -0.740211 0.861803
v 0.250000 -0.735955 0.873625
v 0.250000 -0.730965 0.885156
v 0.250000 -0.725261 0.896351
v 0.250000 -0.718866 0.907165
v 0.250000 -0.711803 0.917557
v 0.250000 -0.704103 0.927485
v 0.250000 -0.695794 0.936909
v 0.250000 -0.686909 0.945794
v 0.250000 -0.677485 0.954103
v 0.250000 -0.667557 0.961803
v 0.250000 -0.657165 0.968865
v 0.250000 -0.646351 0.975261
v 0.250000 -0.635156 0.980965
v 0.250000 -0.623625 0.985955
v 0.250000 -0.611803 0.990211
v 0.250000 -0.599738 0.993717
v 0.250000 -0.587476 0.996457
v 0.250000 -0.575067 0.998423
v 0.250000 -0.562558 0.999605
v 0.250000 -0.550000 -1.000000
v 0.250000 -0.750000 -0.800000
v 0.250000 -0.562558 -0.999605
v 0.250000 -0.575067 -0.998423
v 0.250000 -0.587476 -0.996457
v 0.250000 -0.599738 -0.993717
v 0.250000 -0.611803 -0.990211
v 0.250000 -0.623625 -0.985955
v 0.250000 -0.635156 -0.980965
v 0.250000 -0.646351 -0.975261
v 0.250000 -0.657165 -0.968865
v 0.250000 -0.667557 -0.961803
v 0.250000 -0.677485 -0.954103
v 0.250000 -0.686909 -0.945794
v 0.250000 -0.695794 -0.936909
v 0.250000 -0.704103 -0.927485
v 0.250000 -0.711803 -0.917557
v 0.250000 -0.718866 -0.907165
v 0.250000 -0.725261 -0.896351
v 0.250000 -0.730965 -0.885156
v 0.250000 -0.735955 -0.873625
v 0.250000 -0.740211 -0.861803
v 0.250000 -0.743717 -0.849738
v 0.250000 -0.746457 -0.837476
v 0.250000 -0.748423 -0.825067
v 0.250000 -0.749605 -0.812558
v -0.250000 0.900000 1.000000
v -0.250000 0.900000 -1.000000
v 0.250000 0.900000 1.000000
v 0.250000 0.900000 -1.000000
vn -1.0000 -0.0000 -0.0000
vn 1.0000 -0.0000 -0.0000
vn -0.0000 -0.7902 -0.6129
vn -0.0000 -0.7501 -0.6613
vn -0.0000 -0.7071 -0.7071
vn -0.0000 -0.6613 -0.7501
vn -0.0000 -0.6129 -0.7902
vn -0.0000 -0.5621 -0.8271
vn -0.0000 -0.5090 -0.8607
vn -0.0000 -0.4540 -0.8910
vn -0.0000 -0.3971 -0.9178
vn -0.0000 -0.3387 -0.9409
vn -0.0000 -0.2790 -0.9603
vn -0.0000 -0.2181 -0.9759
vn -0.0000 -0.1564 -0.9877
vn -0.0000 -0.0941 -0.9956
vn -0.0000 1.0000 -0.0000
vn -0.0000 -0.0314 -0.9995
vn -0.0000 -0.0000 1.0000
vn -0.0000 -0.0314 0.9995
vn -0.0000 -0.0941 0.9956
vn -0.0000 -0.1564 0.9877
vn -0.0000 -0.2181 0.9759
vn -0.0000 -0.2790 0.9603
vn -0.0000 -0.3387 0.9409
vn -0.0000 -0.3971 0.9178
vn -0.0000 -0.4540 0.8910
vn -0.0000 -0.5090 0.8607
vn -0.0000 -0.5621 0.8271
vn -0.0000 -0.6129 0.7902
vn -0.0000 -0.6613 0.7501
vn -0.0000 -0.7071 0.7071
vn -0.0000 -0.7501 0.6613
vn -0.0000 -0.7902 0.6129
vn -0.0000 -0.8271 0.5621
vn -0.0000 -0.8607 0.5090
vn -0.0000 -0.8910 0.4540
vn -0.0000 -0.9178 0.3971
vn -0.0000 -0.9409 0.3387
vn -0.0000 -0.9603 0.2790
vn -0.0000 -0.9759 0.2181
vn -0.0000 -0.9877 0.1564
vn -0.0000 -0.9956 0.0941
vn -0.0000 -0.9995 0.0314
vn -0.0000 -1.0000 -0.0000
vn -0.0000 -0.9995 -0.0314
vn -0.0000 -0.9956 -0.0941
vn -0.0000 -0.9877 -0.1564
vn -0.0000 -0.9759 -0.2181
vn -0.0000 -0.9603 -0.2790
vn -0.0000 -0.9409 -0.3387
vn -0.0000 -0.9178 -0.3971
vn -0.0000 -0.8910 -0.4540
vn -0.0000 -0.8607 -0.5090
vn -0.0000 -0.8271 -0.5621
vn -0.0000 -0.0000 -1.0000
vt 0.175000 0.000000
vt 0.175000 1.000000
vt 0.900000 1.000000
vt 0.906279 0.999803
vt 0.912533 0.999211
vt 0.918738 0.998229
vt 0.924869 0.996858
vt 0.930902 0.995106
vt 0.936812 0.992978
vt 0.942578 0.990483
vt 0.948175 0.987631
vt 0.953583 0.984433
vt 0.958779 0.980902
vt 0.963742 0.977051
vt 0.968455 0.972897
vt 0.972897 0.968455
vt 0.977051 0.963742
vt 0.980902 0.958779
vt 0.984433 0.953583
vt 0.987631 0.948175
vt 0.990483 0.942578
vt 0.992978 0.936812
vt 0.995106 0.930902
vt 0.996858 0.924869
vt 0.998229 0.918738
vt 0.999211 0.912533
vt 0.999803 0.906279
vt 1.000000 0.900000
vt 1.000000 0.100000
vt 0.999803 0.093721
vt 0.999211 0.087467
vt 0.998229 0.081262
vt 0.996858 0.075131
vt 0.995106 0.069098
vt 0.992978 0.063188
vt 0.990483 0.057422
vt 0.987631 0.051825
vt 0.984433 0.046417
vt 0.980902 0.041221
vt 0.977051 0.036258
vt 0.972897 0.031545
vt 0.968455 0.027103
vt 0.963742 0.022949
vt 0.958779 0.019098
vt 0.953583 0.015567
vt 0.948175 0.012369
vt 0.942578 0.009517
vt 0.936812 0.007022
vt 0.930902 0.004894
vt 0.924869 0.003142
vt 0.918738 0.001771
vt 0.912533 0.000789
vt 0.906279 0.000197
vt 0.900000 0.000000
s 0
f 105/1/1 106/2/1 27/3/1 29/4/1 30/5/1 31/6/1 32/7/1 33/8/1 34/9/1 35/10/1 36/11/1 37/12/1 38/13/1 39/14/1 40/15/1 41/16/1 42/17/1 43/18/1 44/19/1 45/20/1 46/21/1 47/22/1 48/23/1 49/24/1 50/25/1 51/26/1 52/27/1 28/28/1 1/29/1 3/30/1 4/31/1 5/32/1 6/33/1 7/34/1 8/35/1 9/36/1 10/37/1 11/38/1 12/39/1 13/40/1 14/41/1 15/42/1 16/43/1 17/44/1 18/45/1 19/46/1 20/47/1 21/48/1 22/49/1 23/50/1 24/51/1 25/52/1 26/53/1 2/54/1
f 108/2/2 107/1/2 54/54/2 78/53/2 77/52/2 76/51/2 75/50/2 74/49/2 73/48/2 72/47/2 71/46/2 70/45/2 69/44/2 68/43/2 67/42/2 66/41/2 65/40/2 64/39/2 63/38/2 62/37/2 61/36/2 60/35/2 59/34/2 58/33/2 57/32/2 56/31/2 55/30/2 53/29/2 80/28/2 104/27/2 103/26/2 102/25/2 101/24/2 100/23/2 99/22/2 98/21/2 97/20/2 96/19/2 95/18/2 94/17/2 93/16/2 92/15/2 91/14/2 90/13/2 89/12/2 88/11/2 87/10/2 86/9/2 85/8/2 84/7/2 83/6/2 82/5/2 81/4/2 79/3/2
f 43/18/3 42/17/3 94/17/3 95/18/3
f 42/17/4 41/16/4 93/16/4 94/17/4
f 41/16/5 40/15/5 92/15/5 93/16/5
f 40/15/6 39/14/6 91/14/6 92/15/6
f 39/14/7 38/13/7 90/13/7 91/14/7
f 38/13/8 37/12/8 89/12/8 90/13/8
f 37/12/9 36/11/9 88/11/9 89/12/9
f 36/11/10 35/10/10 87/10/10 88/11/10
f 35/10/11 34/9/11 86/9/11 87/10/11
f 34/9/12 33/8/12 85/8/12 86/9/12
f 33/8/13 32/7/13 84/7/13 85/8/13
f 32/7/14 31/6/14 83/6/14 84/7/14
f 31/6/15 30/5/15 82/5/15 83/6/15
f 30/5/16 29/4/16 81/4/16 82/5/16
f 106/2/17 105/1/17 107/1/17 108/2/17
f 29/4/18 27/3/18 79/3/18 81/4/18
f 105/1/19 2/54/19 54/54/19 107/1/19
f 2/54/20 26/53/20 78/53/20 54/54/20
f 26/53/21 25/52/21 77/52/21 78/53/21
f 25/52/22 24/51/22 76/51/22 77/52/22
f 24/51/23 23/50/23 75/50/23 76/51/23
f 23/50/24 22/49/24 74/49/24 75/50/24
f 22/49/25 21/48/25 73/48/25 74/49/25
f 21/48/26 20/47/26 72/47/26 73/48/26
f 20/47/27 19/46/27 71/46/27 72/47/27
f 19/46/28 18/45/28 70/45/28 71/46/28
f 18/45/29 17/44/29 69/44/29 70/45/29
f 17/44/30 16/43/30 68/43/30 69/44/30
f 16/43/31 15/42/31 67/42/31 68/43/31
f 15/42/32 14/41/32 66/41/32 67/42/32
f 14/41/33 13/40/33 65/40/33 66/41/33
f 13/40/34 12/39/34 64/39/34 65/40/34
f 12/39/35 11/38/35 63/38/35 64/39/35
f 11/38/36 10/37/36 62/37/36 63/38/36
f 10/37/37 9/36/37 61/36/37 62/37/37
f 9/36/38 8/35/38 60/35/38 61/36/38
f 8/35/39 7/34/39 59/34/39 60/35/39
f 7/34/40 6/33/40 58/33/40 59/34/40
f 6/33/41 5/32/41 57/32/41 58/33/41
f 5/32/42 4/31/42 56/31/42 57/32/42
f 4/31/43 3/30/43 55/30/43 56/31/43
f 3/30/44 1/29/44 53/29/44 55/30/44
f 1/29/45 28/28/45 80/28/45 53/29/45
f 28/28/46 52/27/46 104/27/46 80/28/46
f 52/27/47 51/26/47 103/26/47 104/27/47
f 51/26/48 50/25/48 102/25/48 103/26/48
f 50/25/49 49/24/49 101/24/49 102/25/49
f 49/24/50 48/23/50 100/23/50 101/24/50
f 48/23/51 47/22/51 99/22/51 100/23/51
f 47/22/52 46/21/52 98/21/52 99/22/52
f 46/21/53 45/20/53 97/20/53 98/21/53
f 45/20/54 44/19/54 96/19/54 97/20/54
f 44/19/55 43/18/55 95/18/55 96/19/55
f 27/3/56 106/2/56 108/2/56 79/3/56
